REM DIRINDEX 1\2\4\18,1\2\4\19,1\2\5\20,1\2\5\21,1\2\6\22,1\2\7\23,1\2\8\24,1\2\8\25,1\2\9\26,1\2\10\27,1\3\11\28,1\3\11\29,1\3\11\30,1\3\11\31,1\3\12\32,1\3\12\33,1\3\12\34,1\3\12\35,1\3\13\36,1\3\13\37,1\3\14\38,1\3\14\39,1\3\15\40,1\3\15\41,1\3\15\42,1\3\16\43,1\3\16\44,1\3\17\45,1\3\17\46
REM DIRNAME folder01,folder02,folder03,folder04,folder05,folder06,folder07,folder08,folder09,folder10,folder11,folder12,folder13,folder14,folder15,folder16,folder17,folder18,folder19,folder20,folder21,folder22,folder23,folder24,folder25,folder26,folder27,folder28,folder29,folder30,folder31,folder32,folder33,folder34,folder35,folder36,folder37,folder38,folder39,folder40,folder41,folder42,folder43,folder44,folder45,folder46
TITLE ""
FILE "04.mp3" MP3
  TRACK 01 AUDIO
    TITLE "0:"
    INDEX 01 00:00:00
  TRACK 02 AUDIO
    TITLE "28:cjc024_3996"
    INDEX 01 00:00:13
  TRACK 03 AUDIO
    TITLE "0:"
    INDEX 01 00:01:22
  TRACK 04 AUDIO
    TITLE "29:cjc024_3997"
    INDEX 01 00:01:60
  TRACK 05 AUDIO
    TITLE "0:"
    INDEX 01 00:03:41
  TRACK 06 AUDIO
    TITLE "30:cjc024_3998"
    INDEX 01 00:04:05
  TRACK 07 AUDIO
    TITLE "0:"
    INDEX 01 00:06:00
  TRACK 08 AUDIO
    TITLE "31:cjc024_3999"
    INDEX 01 00:06:31
  TRACK 09 AUDIO
    TITLE "0:"
    INDEX 01 00:08:24
  TRACK 10 AUDIO
    TITLE "28:cjc024_4000"
    INDEX 01 00:09:28
  TRACK 11 AUDIO
    TITLE "0:"
    INDEX 01 00:10:45
  TRACK 12 AUDIO
    TITLE "29:cjc024_4001"
    INDEX 01 00:11:09
  TRACK 13 AUDIO
    TITLE "0:"
    INDEX 01 00:14:39
  TRACK 14 AUDIO
    TITLE "30:cjc024_4002"
    INDEX 01 00:15:03
  TRACK 15 AUDIO
    TITLE "0:"
    INDEX 01 00:18:11
  TRACK 16 AUDIO
    TITLE "31:cjc024_4003"
    INDEX 01 00:18:35
  TRACK 17 AUDIO
    TITLE "0:"
    INDEX 01 00:21:41
  TRACK 18 AUDIO
    TITLE "28:cjc024_4004"
    INDEX 01 00:22:42
  TRACK 19 AUDIO
    TITLE "0:"
    INDEX 01 00:23:51
  TRACK 20 AUDIO
    TITLE "29:cjc024_4005"
    INDEX 01 00:24:27
  TRACK 21 AUDIO
    TITLE "0:"
    INDEX 01 00:26:18
  TRACK 22 AUDIO
    TITLE "30:cjc024_4006"
    INDEX 01 00:26:56
  TRACK 23 AUDIO
    TITLE "0:"
    INDEX 01 00:28:45
  TRACK 24 AUDIO
    TITLE "31:cjc024_4007"
    INDEX 01 00:28:68
  TRACK 25 AUDIO
    TITLE "0:"
    INDEX 01 00:30:57
  TRACK 26 AUDIO
    TITLE "28:cjc024_4008"
    INDEX 01 00:31:55
  TRACK 27 AUDIO
    TITLE "0:"
    INDEX 01 00:32:52
  TRACK 28 AUDIO
    TITLE "29:cjc024_4009"
    INDEX 01 00:33:17
  TRACK 29 AUDIO
    TITLE "0:"
    INDEX 01 00:35:00
  TRACK 30 AUDIO
    TITLE "30:cjc024_4010"
    INDEX 01 00:35:37
  TRACK 31 AUDIO
    TITLE "0:"
    INDEX 01 00:37:18
  TRACK 32 AUDIO
    TITLE "31:cjc024_4011"
    INDEX 01 00:37:42
  TRACK 33 AUDIO
    TITLE "0:"
    INDEX 01 00:39:23
  TRACK 34 AUDIO
    TITLE "28:cjc024_4012"
    INDEX 01 00:40:23
  TRACK 35 AUDIO
    TITLE "0:"
    INDEX 01 00:41:32
  TRACK 36 AUDIO
    TITLE "29:cjc024_4013"
    INDEX 01 00:41:69
  TRACK 37 AUDIO
    TITLE "0:"
    INDEX 01 00:43:66
  TRACK 38 AUDIO
    TITLE "30:cjc024_4014"
    INDEX 01 00:44:30
  TRACK 39 AUDIO
    TITLE "0:"
    INDEX 01 00:46:06
  TRACK 40 AUDIO
    TITLE "31:cjc024_4015"
    INDEX 01 00:46:27
  TRACK 41 AUDIO
    TITLE "0:"
    INDEX 01 00:48:00
  TRACK 42 AUDIO
    TITLE "28:cjc024_4016"
    INDEX 01 00:49:00
  TRACK 43 AUDIO
    TITLE "0:"
    INDEX 01 00:50:23
  TRACK 44 AUDIO
    TITLE "29:cjc024_4017"
    INDEX 01 00:50:68
  TRACK 45 AUDIO
    TITLE "0:"
    INDEX 01 00:55:18
  TRACK 46 AUDIO
    TITLE "30:cjc024_4018"
    INDEX 01 00:55:55
  TRACK 47 AUDIO
    TITLE "0:"
    INDEX 01 00:59:00
  TRACK 48 AUDIO
    TITLE "31:cjc024_4019"
    INDEX 01 00:59:26
  TRACK 49 AUDIO
    TITLE "0:"
    INDEX 01 01:02:46
  TRACK 50 AUDIO
    TITLE "28:cjc024_4020"
    INDEX 01 01:03:45
  TRACK 51 AUDIO
    TITLE "0:"
    INDEX 01 01:04:66
  TRACK 52 AUDIO
    TITLE "29:cjc024_4021"
    INDEX 01 01:05:28
  TRACK 53 AUDIO
    TITLE "0:"
    INDEX 01 01:07:43
  TRACK 54 AUDIO
    TITLE "30:cjc024_4022"
    INDEX 01 01:08:05
  TRACK 55 AUDIO
    TITLE "0:"
    INDEX 01 01:09:65
  TRACK 56 AUDIO
    TITLE "31:cjc024_4023"
    INDEX 01 01:10:16
  TRACK 57 AUDIO
    TITLE "0:"
    INDEX 01 01:12:01
  TRACK 58 AUDIO
    TITLE "28:cjc024_4024"
    INDEX 01 01:13:02
  TRACK 59 AUDIO
    TITLE "0:"
    INDEX 01 01:14:14
  TRACK 60 AUDIO
    TITLE "29:cjc024_4025"
    INDEX 01 01:14:61
  TRACK 61 AUDIO
    TITLE "0:"
    INDEX 01 01:17:45
  TRACK 62 AUDIO
    TITLE "30:cjc024_4026"
    INDEX 01 01:18:06
  TRACK 63 AUDIO
    TITLE "0:"
    INDEX 01 01:20:48
  TRACK 64 AUDIO
    TITLE "31:cjc024_4027"
    INDEX 01 01:20:71
  TRACK 65 AUDIO
    TITLE "0:"
    INDEX 01 01:23:38
  TRACK 66 AUDIO
    TITLE "28:cjc024_4028"
    INDEX 01 01:24:37
  TRACK 67 AUDIO
    TITLE "0:"
    INDEX 01 01:25:62
  TRACK 68 AUDIO
    TITLE "29:cjc024_4029"
    INDEX 01 01:26:25
  TRACK 69 AUDIO
    TITLE "0:"
    INDEX 01 01:28:25
  TRACK 70 AUDIO
    TITLE "30:cjc024_4030"
    INDEX 01 01:28:63
  TRACK 71 AUDIO
    TITLE "0:"
    INDEX 01 01:31:41
  TRACK 72 AUDIO
    TITLE "31:cjc024_4031"
    INDEX 01 01:31:67
  TRACK 73 AUDIO
    TITLE "0:"
    INDEX 01 01:34:44
  TRACK 74 AUDIO
    TITLE "28:cjc024_4032"
    INDEX 01 01:35:43
  TRACK 75 AUDIO
    TITLE "0:"
    INDEX 01 01:36:66
  TRACK 76 AUDIO
    TITLE "29:cjc024_4033"
    INDEX 01 01:37:28
  TRACK 77 AUDIO
    TITLE "0:"
    INDEX 01 01:40:50
  TRACK 78 AUDIO
    TITLE "30:cjc024_4034"
    INDEX 01 01:41:12
  TRACK 79 AUDIO
    TITLE "0:"
    INDEX 01 01:44:17
  TRACK 80 AUDIO
    TITLE "31:cjc024_4035"
    INDEX 01 01:44:40
  TRACK 81 AUDIO
    TITLE "0:"
    INDEX 01 01:47:42
  TRACK 82 AUDIO
    TITLE "28:cjc024_4036"
    INDEX 01 01:48:42
  TRACK 83 AUDIO
    TITLE "0:"
    INDEX 01 01:49:57
  TRACK 84 AUDIO
    TITLE "29:cjc024_4037"
    INDEX 01 01:50:21
  TRACK 85 AUDIO
    TITLE "0:"
    INDEX 01 01:51:74
  TRACK 86 AUDIO
    TITLE "30:cjc024_4038"
    INDEX 01 01:52:38
  TRACK 87 AUDIO
    TITLE "0:"
    INDEX 01 01:54:11
  TRACK 88 AUDIO
    TITLE "31:cjc024_4039"
    INDEX 01 01:54:37
  TRACK 89 AUDIO
    TITLE "0:"
    INDEX 01 01:56:10
  TRACK 90 AUDIO
    TITLE "28:cjc024_4040"
    INDEX 01 01:57:09
  TRACK 91 AUDIO
    TITLE "0:"
    INDEX 01 01:58:40
  TRACK 92 AUDIO
    TITLE "29:cjc024_4041"
    INDEX 01 01:59:03
  TRACK 93 AUDIO
    TITLE "0:"
    INDEX 01 02:00:71
  TRACK 94 AUDIO
    TITLE "30:cjc024_4042"
    INDEX 01 02:01:31
  TRACK 95 AUDIO
    TITLE "0:"
    INDEX 01 02:03:26
  TRACK 96 AUDIO
    TITLE "31:cjc024_4043"
    INDEX 01 02:03:51
  TRACK 97 AUDIO
    TITLE "0:"
    INDEX 01 02:05:44
  TRACK 98 AUDIO
    TITLE "28:cjc024_4044"
    INDEX 01 02:06:46
  TRACK 99 AUDIO
    TITLE "0:"
    INDEX 01 02:07:41
  TRACK 100 AUDIO
    TITLE "29:cjc024_4045"
    INDEX 01 02:08:05
  TRACK 101 AUDIO
    TITLE "0:"
    INDEX 01 02:09:44
  TRACK 102 AUDIO
    TITLE "30:cjc024_4046"
    INDEX 01 02:10:08
  TRACK 103 AUDIO
    TITLE "0:"
    INDEX 01 02:11:51
  TRACK 104 AUDIO
    TITLE "31:cjc024_4047"
    INDEX 01 02:12:01
  TRACK 105 AUDIO
    TITLE "0:"
    INDEX 01 02:13:44
  TRACK 106 AUDIO
    TITLE "28:cjc024_4048"
    INDEX 01 02:14:43
  TRACK 107 AUDIO
    TITLE "0:"
    INDEX 01 02:15:51
  TRACK 108 AUDIO
    TITLE "29:cjc024_4049"
    INDEX 01 02:16:17
  TRACK 109 AUDIO
    TITLE "0:"
    INDEX 01 02:18:12
  TRACK 110 AUDIO
    TITLE "30:cjc024_4050"
    INDEX 01 02:18:51
  TRACK 111 AUDIO
    TITLE "0:"
    INDEX 01 02:20:30
  TRACK 112 AUDIO
    TITLE "31:cjc024_4051"
    INDEX 01 02:20:58
  TRACK 113 AUDIO
    TITLE "0:"
    INDEX 01 02:22:35
  TRACK 114 AUDIO
    TITLE "28:cjc024_4052"
    INDEX 01 02:23:36
  TRACK 115 AUDIO
    TITLE "0:"
    INDEX 01 02:24:46
  TRACK 116 AUDIO
    TITLE "29:cjc024_4053"
    INDEX 01 02:25:12
  TRACK 117 AUDIO
    TITLE "0:"
    INDEX 01 02:28:00
  TRACK 118 AUDIO
    TITLE "30:cjc024_4054"
    INDEX 01 02:28:37
  TRACK 119 AUDIO
    TITLE "0:"
    INDEX 01 02:31:03
  TRACK 120 AUDIO
    TITLE "31:cjc024_4055"
    INDEX 01 02:31:28
  TRACK 121 AUDIO
    TITLE "0:"
    INDEX 01 02:33:66
  TRACK 122 AUDIO
    TITLE "28:cjc024_4056"
    INDEX 01 02:34:67
  TRACK 123 AUDIO
    TITLE "0:"
    INDEX 01 02:36:06
  TRACK 124 AUDIO
    TITLE "29:cjc024_4057"
    INDEX 01 02:36:45
  TRACK 125 AUDIO
    TITLE "0:"
    INDEX 01 02:38:18
  TRACK 126 AUDIO
    TITLE "30:cjc024_4058"
    INDEX 01 02:38:55
  TRACK 127 AUDIO
    TITLE "0:"
    INDEX 01 02:40:19
  TRACK 128 AUDIO
    TITLE "31:cjc024_4059"
    INDEX 01 02:40:47
  TRACK 129 AUDIO
    TITLE "0:"
    INDEX 01 02:42:10
  TRACK 130 AUDIO
    TITLE "28:cjc024_4060"
    INDEX 01 02:43:12
  TRACK 131 AUDIO
    TITLE "0:"
    INDEX 01 02:44:33
  TRACK 132 AUDIO
    TITLE "29:cjc024_4061"
    INDEX 01 02:44:68
  TRACK 133 AUDIO
    TITLE "0:"
    INDEX 01 02:47:35
  TRACK 134 AUDIO
    TITLE "30:cjc024_4062"
    INDEX 01 02:47:74
  TRACK 135 AUDIO
    TITLE "0:"
    INDEX 01 02:50:02
  TRACK 136 AUDIO
    TITLE "31:cjc024_4063"
    INDEX 01 02:50:29
  TRACK 137 AUDIO
    TITLE "0:"
    INDEX 01 02:52:32
  TRACK 138 AUDIO
    TITLE "28:cjc024_4064"
    INDEX 01 02:53:33
  TRACK 139 AUDIO
    TITLE "0:"
    INDEX 01 02:54:62
  TRACK 140 AUDIO
    TITLE "29:cjc024_4065"
    INDEX 01 02:55:27
  TRACK 141 AUDIO
    TITLE "0:"
    INDEX 01 02:56:63
  TRACK 142 AUDIO
    TITLE "30:cjc024_4066"
    INDEX 01 02:57:29
  TRACK 143 AUDIO
    TITLE "0:"
    INDEX 01 02:59:34
  TRACK 144 AUDIO
    TITLE "31:cjc024_4067"
    INDEX 01 02:59:60
  TRACK 145 AUDIO
    TITLE "0:"
    INDEX 01 03:01:64
  TRACK 146 AUDIO
    TITLE "28:cjc024_4068"
    INDEX 01 03:02:64
  TRACK 147 AUDIO
    TITLE "0:"
    INDEX 01 03:03:67
  TRACK 148 AUDIO
    TITLE "29:cjc024_4069"
    INDEX 01 03:04:31
  TRACK 149 AUDIO
    TITLE "0:"
    INDEX 01 03:06:62
  TRACK 150 AUDIO
    TITLE "30:cjc024_4070"
    INDEX 01 03:07:28
  TRACK 151 AUDIO
    TITLE "0:"
    INDEX 01 03:09:21
  TRACK 152 AUDIO
    TITLE "31:cjc024_4071"
    INDEX 01 03:09:46
  TRACK 153 AUDIO
    TITLE "0:"
    INDEX 01 03:11:39
  TRACK 154 AUDIO
    TITLE "28:cjc024_4072"
    INDEX 01 03:12:37
  TRACK 155 AUDIO
    TITLE "0:"
    INDEX 01 03:13:40
  TRACK 156 AUDIO
    TITLE "29:cjc024_4073"
    INDEX 01 03:14:02
  TRACK 157 AUDIO
    TITLE "0:"
    INDEX 01 03:15:64
  TRACK 158 AUDIO
    TITLE "30:cjc024_4074"
    INDEX 01 03:16:25
  TRACK 159 AUDIO
    TITLE "0:"
    INDEX 01 03:18:39
  TRACK 160 AUDIO
    TITLE "31:cjc024_4075"
    INDEX 01 03:18:63
  TRACK 161 AUDIO
    TITLE "0:"
    INDEX 01 03:21:00
  TRACK 162 AUDIO
    TITLE "28:cjc024_4076"
    INDEX 01 03:21:71
  TRACK 163 AUDIO
    TITLE "0:"
    INDEX 01 03:23:29
  TRACK 164 AUDIO
    TITLE "29:cjc024_4077"
    INDEX 01 03:23:68
  TRACK 165 AUDIO
    TITLE "0:"
    INDEX 01 03:25:71
  TRACK 166 AUDIO
    TITLE "30:cjc024_4078"
    INDEX 01 03:26:31
  TRACK 167 AUDIO
    TITLE "0:"
    INDEX 01 03:28:10
  TRACK 168 AUDIO
    TITLE "31:cjc024_4079"
    INDEX 01 03:28:32
  TRACK 169 AUDIO
    TITLE "0:"
    INDEX 01 03:30:13
  TRACK 170 AUDIO
    TITLE "28:cjc024_4080"
    INDEX 01 03:31:15
  TRACK 171 AUDIO
    TITLE "0:"
    INDEX 01 03:32:18
  TRACK 172 AUDIO
    TITLE "29:cjc024_4081"
    INDEX 01 03:32:61
  TRACK 173 AUDIO
    TITLE "0:"
    INDEX 01 03:35:26
  TRACK 174 AUDIO
    TITLE "30:cjc024_4082"
    INDEX 01 03:35:63
  TRACK 175 AUDIO
    TITLE "0:"
    INDEX 01 03:37:58
  TRACK 176 AUDIO
    TITLE "31:cjc024_4083"
    INDEX 01 03:38:05
  TRACK 177 AUDIO
    TITLE "0:"
    INDEX 01 03:40:00
  TRACK 178 AUDIO
    TITLE "28:cjc024_4084"
    INDEX 01 03:40:72
  TRACK 179 AUDIO
    TITLE "0:"
    INDEX 01 03:42:01
  TRACK 180 AUDIO
    TITLE "29:cjc024_4085"
    INDEX 01 03:42:38
  TRACK 181 AUDIO
    TITLE "0:"
    INDEX 01 03:45:24
  TRACK 182 AUDIO
    TITLE "30:cjc024_4086"
    INDEX 01 03:45:66
  TRACK 183 AUDIO
    TITLE "0:"
    INDEX 01 03:48:40
  TRACK 184 AUDIO
    TITLE "31:cjc024_4087"
    INDEX 01 03:48:66
  TRACK 185 AUDIO
    TITLE "0:"
    INDEX 01 03:51:43
  TRACK 186 AUDIO
    TITLE "28:cjc024_4088"
    INDEX 01 03:52:42
  TRACK 187 AUDIO
    TITLE "0:"
    INDEX 01 03:53:45
  TRACK 188 AUDIO
    TITLE "29:cjc024_4089"
    INDEX 01 03:54:08
  TRACK 189 AUDIO
    TITLE "0:"
    INDEX 01 03:57:32
  TRACK 190 AUDIO
    TITLE "30:cjc024_4090"
    INDEX 01 03:57:71
  TRACK 191 AUDIO
    TITLE "0:"
    INDEX 01 04:00:48
  TRACK 192 AUDIO
    TITLE "31:cjc024_4091"
    INDEX 01 04:00:71
  TRACK 193 AUDIO
    TITLE "0:"
    INDEX 01 04:03:48
  TRACK 194 AUDIO
    TITLE "28:cjc024_4092"
    INDEX 01 04:04:45
  TRACK 195 AUDIO
    TITLE "0:"
    INDEX 01 04:05:45
  TRACK 196 AUDIO
    TITLE "29:cjc024_4093"
    INDEX 01 04:06:13
  TRACK 197 AUDIO
    TITLE "0:"
    INDEX 01 04:08:55
  TRACK 198 AUDIO
    TITLE "30:cjc024_4094"
    INDEX 01 04:09:15
  TRACK 199 AUDIO
    TITLE "0:"
    INDEX 01 04:11:41
  TRACK 200 AUDIO
    TITLE "31:cjc024_4095"
    INDEX 01 04:11:67
  TRACK 201 AUDIO
    TITLE "0:"
    INDEX 01 04:14:16
  TRACK 202 AUDIO
    TITLE "28:cjc024_4096"
    INDEX 01 04:15:16
  TRACK 203 AUDIO
    TITLE "0:"
    INDEX 01 04:16:27
  TRACK 204 AUDIO
    TITLE "29:cjc024_4097"
    INDEX 01 04:16:70
  TRACK 205 AUDIO
    TITLE "0:"
    INDEX 01 04:18:59
  TRACK 206 AUDIO
    TITLE "30:cjc024_4098"
    INDEX 01 04:19:21
  TRACK 207 AUDIO
    TITLE "0:"
    INDEX 01 04:21:22
  TRACK 208 AUDIO
    TITLE "31:cjc024_4099"
    INDEX 01 04:21:44
  TRACK 209 AUDIO
    TITLE "0:"
    INDEX 01 04:23:47
  TRACK 210 AUDIO
    TITLE "28:cjc024_4100"
    INDEX 01 04:24:42
  TRACK 211 AUDIO
    TITLE "0:"
    INDEX 01 04:25:44
  TRACK 212 AUDIO
    TITLE "29:cjc024_4101"
    INDEX 01 04:26:14
  TRACK 213 AUDIO
    TITLE "0:"
    INDEX 01 04:28:09
  TRACK 214 AUDIO
    TITLE "30:cjc024_4102"
    INDEX 01 04:28:44
  TRACK 215 AUDIO
    TITLE "0:"
    INDEX 01 04:30:09
  TRACK 216 AUDIO
    TITLE "31:cjc024_4103"
    INDEX 01 04:30:41
  TRACK 217 AUDIO
    TITLE "0:"
    INDEX 01 04:32:06
  TRACK 218 AUDIO
    TITLE "28:cjc024_4104"
    INDEX 01 04:33:16
  TRACK 219 AUDIO
    TITLE "0:"
    INDEX 01 04:34:21
  TRACK 220 AUDIO
    TITLE "29:cjc024_4105"
    INDEX 01 04:34:60
  TRACK 221 AUDIO
    TITLE "0:"
    INDEX 01 04:36:18
  TRACK 222 AUDIO
    TITLE "30:cjc024_4106"
    INDEX 01 04:36:55
  TRACK 223 AUDIO
    TITLE "0:"
    INDEX 01 04:38:34
  TRACK 224 AUDIO
    TITLE "31:cjc024_4107"
    INDEX 01 04:38:60
  TRACK 225 AUDIO
    TITLE "0:"
    INDEX 01 04:40:41
  TRACK 226 AUDIO
    TITLE "28:cjc024_4108"
    INDEX 01 04:41:43
  TRACK 227 AUDIO
    TITLE "0:"
    INDEX 01 04:42:50
  TRACK 228 AUDIO
    TITLE "29:cjc024_4109"
    INDEX 01 04:43:22
  TRACK 229 AUDIO
    TITLE "0:"
    INDEX 01 04:46:30
  TRACK 230 AUDIO
    TITLE "30:cjc024_4110"
    INDEX 01 04:46:69
  TRACK 231 AUDIO
    TITLE "0:"
    INDEX 01 04:49:62
  TRACK 232 AUDIO
    TITLE "31:cjc024_4111"
    INDEX 01 04:50:12
  TRACK 233 AUDIO
    TITLE "0:"
    INDEX 01 04:53:05
  TRACK 234 AUDIO
    TITLE "28:cjc024_4112"
    INDEX 01 04:54:02
  TRACK 235 AUDIO
    TITLE "0:"
    INDEX 01 04:55:15
  TRACK 236 AUDIO
    TITLE "29:cjc024_4113"
    INDEX 01 04:55:58
  TRACK 237 AUDIO
    TITLE "0:"
    INDEX 01 04:57:51
  TRACK 238 AUDIO
    TITLE "30:cjc024_4114"
    INDEX 01 04:58:16
  TRACK 239 AUDIO
    TITLE "0:"
    INDEX 01 05:00:11
  TRACK 240 AUDIO
    TITLE "31:cjc024_4115"
    INDEX 01 05:00:32
  TRACK 241 AUDIO
    TITLE "0:"
    INDEX 01 05:02:29
  TRACK 242 AUDIO
    TITLE "28:cjc024_4116"
    INDEX 01 05:03:28
  TRACK 243 AUDIO
    TITLE "0:"
    INDEX 01 05:04:36
  TRACK 244 AUDIO
    TITLE "29:cjc024_4117"
    INDEX 01 05:04:73
  TRACK 245 AUDIO
    TITLE "0:"
    INDEX 01 05:08:39
  TRACK 246 AUDIO
    TITLE "30:cjc024_4118"
    INDEX 01 05:09:02
  TRACK 247 AUDIO
    TITLE "0:"
    INDEX 01 05:11:40
  TRACK 248 AUDIO
    TITLE "31:cjc024_4119"
    INDEX 01 05:11:63
  TRACK 249 AUDIO
    TITLE "0:"
    INDEX 01 05:14:26
  TRACK 250 AUDIO
    TITLE "28:cjc024_4120"
    INDEX 01 05:15:26
  TRACK 251 AUDIO
    TITLE "0:"
    INDEX 01 05:16:59
  TRACK 252 AUDIO
    TITLE "29:cjc024_4121"
    INDEX 01 05:17:19
  TRACK 253 AUDIO
    TITLE "0:"
    INDEX 01 05:19:53
  TRACK 254 AUDIO
    TITLE "30:cjc024_4122"
    INDEX 01 05:20:15
  TRACK 255 AUDIO
    TITLE "0:"
    INDEX 01 05:22:30
  TRACK 256 AUDIO
    TITLE "31:cjc024_4123"
    INDEX 01 05:22:53
  TRACK 257 AUDIO
    TITLE "0:"
    INDEX 01 05:24:68
  TRACK 258 AUDIO
    TITLE "28:cjc024_4124"
    INDEX 01 05:25:65
  TRACK 259 AUDIO
    TITLE "0:"
    INDEX 01 05:27:13
  TRACK 260 AUDIO
    TITLE "29:cjc024_4125"
    INDEX 01 05:27:51
  TRACK 261 AUDIO
    TITLE "0:"
    INDEX 01 05:29:30
  TRACK 262 AUDIO
    TITLE "30:cjc024_4126"
    INDEX 01 05:29:67
  TRACK 263 AUDIO
    TITLE "0:"
    INDEX 01 05:31:74
  TRACK 264 AUDIO
    TITLE "31:cjc024_4127"
    INDEX 01 05:32:24
  TRACK 265 AUDIO
    TITLE "0:"
    INDEX 01 05:34:31
  TRACK 266 AUDIO
    TITLE "28:cjc024_4128"
    INDEX 01 05:35:32
  TRACK 267 AUDIO
    TITLE "0:"
    INDEX 01 05:36:30
  TRACK 268 AUDIO
    TITLE "29:cjc024_4129"
    INDEX 01 05:36:67
  TRACK 269 AUDIO
    TITLE "0:"
    INDEX 01 05:38:50
  TRACK 270 AUDIO
    TITLE "30:cjc024_4130"
    INDEX 01 05:39:15
  TRACK 271 AUDIO
    TITLE "0:"
    INDEX 01 05:40:69
  TRACK 272 AUDIO
    TITLE "31:cjc024_4131"
    INDEX 01 05:41:23
  TRACK 273 AUDIO
    TITLE "0:"
    INDEX 01 05:43:03
  TRACK 274 AUDIO
    TITLE "28:cjc024_4132"
    INDEX 01 05:44:08
  TRACK 275 AUDIO
    TITLE "0:"
    INDEX 01 05:45:15
  TRACK 276 AUDIO
    TITLE "29:cjc024_4133"
    INDEX 01 05:45:52
  TRACK 277 AUDIO
    TITLE "0:"
    INDEX 01 05:47:55
  TRACK 278 AUDIO
    TITLE "30:cjc024_4134"
    INDEX 01 05:48:19
  TRACK 279 AUDIO
    TITLE "0:"
    INDEX 01 05:49:58
  TRACK 280 AUDIO
    TITLE "31:cjc024_4135"
    INDEX 01 05:50:10
  TRACK 281 AUDIO
    TITLE "0:"
    INDEX 01 05:51:51
  TRACK 282 AUDIO
    TITLE "28:cjc024_4136"
    INDEX 01 05:52:52
  TRACK 283 AUDIO
    TITLE "0:"
    INDEX 01 05:53:50
  TRACK 284 AUDIO
    TITLE "29:cjc024_4137"
    INDEX 01 05:54:10
  TRACK 285 AUDIO
    TITLE "0:"
    INDEX 01 05:56:62
  TRACK 286 AUDIO
    TITLE "30:cjc024_4138"
    INDEX 01 05:57:26
  TRACK 287 AUDIO
    TITLE "0:"
    INDEX 01 05:59:31
  TRACK 288 AUDIO
    TITLE "31:cjc024_4139"
    INDEX 01 05:59:54
  TRACK 289 AUDIO
    TITLE "0:"
    INDEX 01 06:01:61
  TRACK 290 AUDIO
    TITLE "28:cjc024_4140"
    INDEX 01 06:02:63
  TRACK 291 AUDIO
    TITLE "0:"
    INDEX 01 06:03:52
  TRACK 292 AUDIO
    TITLE "29:cjc024_4141"
    INDEX 01 06:04:16
  TRACK 293 AUDIO
    TITLE "0:"
    INDEX 01 06:06:51
  TRACK 294 AUDIO
    TITLE "30:cjc024_4142"
    INDEX 01 06:07:11
  TRACK 295 AUDIO
    TITLE "0:"
    INDEX 01 06:09:14
  TRACK 296 AUDIO
    TITLE "31:cjc024_4143"
    INDEX 01 06:09:37
  TRACK 297 AUDIO
    TITLE "0:"
    INDEX 01 06:11:40
  TRACK 298 AUDIO
    TITLE "28:cjc024_4144"
    INDEX 01 06:12:39
  TRACK 299 AUDIO
    TITLE "0:"
    INDEX 01 06:13:55
  TRACK 300 AUDIO
    TITLE "29:cjc024_4145"
    INDEX 01 06:14:17
  TRACK 301 AUDIO
    TITLE "0:"
    INDEX 01 06:16:47
  TRACK 302 AUDIO
    TITLE "30:cjc024_4146"
    INDEX 01 06:17:07
  TRACK 303 AUDIO
    TITLE "0:"
    INDEX 01 06:19:63
  TRACK 304 AUDIO
    TITLE "31:cjc024_4147"
    INDEX 01 06:20:13
  TRACK 305 AUDIO
    TITLE "0:"
    INDEX 01 06:22:67
  TRACK 306 AUDIO
    TITLE "28:cjc024_4148"
    INDEX 01 06:23:71
  TRACK 307 AUDIO
    TITLE "0:"
    INDEX 01 06:24:68
  TRACK 308 AUDIO
    TITLE "29:cjc024_4149"
    INDEX 01 06:25:32
  TRACK 309 AUDIO
    TITLE "0:"
    INDEX 01 06:27:33
  TRACK 310 AUDIO
    TITLE "30:cjc024_4150"
    INDEX 01 06:27:70
  TRACK 311 AUDIO
    TITLE "0:"
    INDEX 01 06:29:56
  TRACK 312 AUDIO
    TITLE "31:cjc024_4151"
    INDEX 01 06:30:02
  TRACK 313 AUDIO
    TITLE "0:"
    INDEX 01 06:31:60
  TRACK 314 AUDIO
    TITLE "28:cjc024_4152"
    INDEX 01 06:32:62
  TRACK 315 AUDIO
    TITLE "0:"
    INDEX 01 06:33:63
  TRACK 316 AUDIO
    TITLE "29:cjc024_4153"
    INDEX 01 06:34:25
  TRACK 317 AUDIO
    TITLE "0:"
    INDEX 01 06:38:09
  TRACK 318 AUDIO
    TITLE "30:cjc024_4154"
    INDEX 01 06:38:51
  TRACK 319 AUDIO
    TITLE "0:"
    INDEX 01 06:40:59
  TRACK 320 AUDIO
    TITLE "31:cjc024_4155"
    INDEX 01 06:41:12
  TRACK 321 AUDIO
    TITLE "0:"
    INDEX 01 06:43:22
  TRACK 322 AUDIO
    TITLE "28:cjc024_4156"
    INDEX 01 06:44:26
  TRACK 323 AUDIO
    TITLE "0:"
    INDEX 01 06:45:41
  TRACK 324 AUDIO
    TITLE "29:cjc024_4157"
    INDEX 01 06:46:03
  TRACK 325 AUDIO
    TITLE "0:"
    INDEX 01 06:50:60
  TRACK 326 AUDIO
    TITLE "30:cjc024_4158"
    INDEX 01 06:51:20
  TRACK 327 AUDIO
    TITLE "0:"
    INDEX 01 06:55:49
  TRACK 328 AUDIO
    TITLE "31:cjc024_4159"
    INDEX 01 06:56:00
  TRACK 329 AUDIO
    TITLE "0:"
    INDEX 01 07:00:29
  TRACK 330 AUDIO
    TITLE "28:cjc024_4160"
    INDEX 01 07:01:24
  TRACK 331 AUDIO
    TITLE "0:"
    INDEX 01 07:02:47
  TRACK 332 AUDIO
    TITLE "29:cjc024_4161"
    INDEX 01 07:03:11
  TRACK 333 AUDIO
    TITLE "0:"
    INDEX 01 07:05:59
  TRACK 334 AUDIO
    TITLE "30:cjc024_4162"
    INDEX 01 07:06:23
  TRACK 335 AUDIO
    TITLE "0:"
    INDEX 01 07:08:58
  TRACK 336 AUDIO
    TITLE "31:cjc024_4163"
    INDEX 01 07:09:06
  TRACK 337 AUDIO
    TITLE "0:"
    INDEX 01 07:11:38
  TRACK 338 AUDIO
    TITLE "28:cjc024_4164"
    INDEX 01 07:12:40
  TRACK 339 AUDIO
    TITLE "0:"
    INDEX 01 07:13:39
  TRACK 340 AUDIO
    TITLE "29:cjc024_4165"
    INDEX 01 07:14:03
  TRACK 341 AUDIO
    TITLE "0:"
    INDEX 01 07:15:67
  TRACK 342 AUDIO
    TITLE "30:cjc024_4166"
    INDEX 01 07:16:32
  TRACK 343 AUDIO
    TITLE "0:"
    INDEX 01 07:18:03
  TRACK 344 AUDIO
    TITLE "31:cjc024_4167"
    INDEX 01 07:18:29
  TRACK 345 AUDIO
    TITLE "0:"
    INDEX 01 07:20:00
  TRACK 346 AUDIO
    TITLE "28:cjc024_4168"
    INDEX 01 07:21:01
  TRACK 347 AUDIO
    TITLE "0:"
    INDEX 01 07:22:17
  TRACK 348 AUDIO
    TITLE "29:cjc024_4169"
    INDEX 01 07:22:58
  TRACK 349 AUDIO
    TITLE "0:"
    INDEX 01 07:25:05
  TRACK 350 AUDIO
    TITLE "30:cjc024_4170"
    INDEX 01 07:25:44
  TRACK 351 AUDIO
    TITLE "0:"
    INDEX 01 07:27:67
  TRACK 352 AUDIO
    TITLE "31:cjc024_4171"
    INDEX 01 07:28:27
  TRACK 353 AUDIO
    TITLE "0:"
    INDEX 01 07:30:47
  TRACK 354 AUDIO
    TITLE "28:cjc024_4172"
    INDEX 01 07:31:59
  TRACK 355 AUDIO
    TITLE "0:"
    INDEX 01 07:33:03
  TRACK 356 AUDIO
    TITLE "29:cjc024_4173"
    INDEX 01 07:33:38
  TRACK 357 AUDIO
    TITLE "0:"
    INDEX 01 07:35:66
  TRACK 358 AUDIO
    TITLE "30:cjc024_4174"
    INDEX 01 07:36:30
  TRACK 359 AUDIO
    TITLE "0:"
    INDEX 01 07:38:59
  TRACK 360 AUDIO
    TITLE "31:cjc024_4175"
    INDEX 01 07:39:05
  TRACK 361 AUDIO
    TITLE "0:"
    INDEX 01 07:41:32
  TRACK 362 AUDIO
    TITLE "28:cjc024_4176"
    INDEX 01 07:42:33
  TRACK 363 AUDIO
    TITLE "0:"
    INDEX 01 07:43:44
  TRACK 364 AUDIO
    TITLE "29:cjc024_4177"
    INDEX 01 07:44:06
  TRACK 365 AUDIO
    TITLE "0:"
    INDEX 01 07:46:39
  TRACK 366 AUDIO
    TITLE "30:cjc024_4178"
    INDEX 01 07:46:72
  TRACK 367 AUDIO
    TITLE "0:"
    INDEX 01 07:49:04
  TRACK 368 AUDIO
    TITLE "31:cjc024_4179"
    INDEX 01 07:49:31
  TRACK 369 AUDIO
    TITLE "0:"
    INDEX 01 07:51:34
  TRACK 370 AUDIO
    TITLE "28:cjc024_4180"
    INDEX 01 07:52:51
  TRACK 371 AUDIO
    TITLE "0:"
    INDEX 01 07:53:68
  TRACK 372 AUDIO
    TITLE "29:cjc024_4181"
    INDEX 01 07:54:30
  TRACK 373 AUDIO
    TITLE "0:"
    INDEX 01 07:56:25
  TRACK 374 AUDIO
    TITLE "30:cjc024_4182"
    INDEX 01 07:56:62
  TRACK 375 AUDIO
    TITLE "0:"
    INDEX 01 07:58:36
  TRACK 376 AUDIO
    TITLE "31:cjc024_4183"
    INDEX 01 07:58:65
  TRACK 377 AUDIO
    TITLE "0:"
    INDEX 01 08:00:39
  TRACK 378 AUDIO
    TITLE "28:cjc024_4184"
    INDEX 01 08:01:40
  TRACK 379 AUDIO
    TITLE "0:"
    INDEX 01 08:02:51
  TRACK 380 AUDIO
    TITLE "29:cjc024_4185"
    INDEX 01 08:03:21
  TRACK 381 AUDIO
    TITLE "0:"
    INDEX 01 08:05:50
  TRACK 382 AUDIO
    TITLE "30:cjc024_4186"
    INDEX 01 08:06:10
  TRACK 383 AUDIO
    TITLE "0:"
    INDEX 01 08:08:23
  TRACK 384 AUDIO
    TITLE "31:cjc024_4187"
    INDEX 01 08:08:48
  TRACK 385 AUDIO
    TITLE "0:"
    INDEX 01 08:10:61
  TRACK 386 AUDIO
    TITLE "28:cjc024_4188"
    INDEX 01 08:11:60
  TRACK 387 AUDIO
    TITLE "0:"
    INDEX 01 08:12:73
  TRACK 388 AUDIO
    TITLE "29:cjc024_4189"
    INDEX 01 08:13:35
  TRACK 389 AUDIO
    TITLE "0:"
    INDEX 01 08:16:10
  TRACK 390 AUDIO
    TITLE "30:cjc024_4190"
    INDEX 01 08:16:48
  TRACK 391 AUDIO
    TITLE "0:"
    INDEX 01 08:19:58
  TRACK 392 AUDIO
    TITLE "31:cjc024_4191"
    INDEX 01 08:20:08
  TRACK 393 AUDIO
    TITLE "0:"
    INDEX 01 08:23:16
  TRACK 394 AUDIO
    TITLE "28:cjc024_4192"
    INDEX 01 08:24:20
  TRACK 395 AUDIO
    TITLE "0:"
    INDEX 01 08:25:17
  TRACK 396 AUDIO
    TITLE "29:cjc024_4193"
    INDEX 01 08:25:52
  TRACK 397 AUDIO
    TITLE "0:"
    INDEX 01 08:27:65
  TRACK 398 AUDIO
    TITLE "30:cjc024_4194"
    INDEX 01 08:28:29
  TRACK 399 AUDIO
    TITLE "0:"
    INDEX 01 08:30:30
  TRACK 400 AUDIO
    TITLE "31:cjc024_4195"
    INDEX 01 08:30:54
  TRACK 401 AUDIO
    TITLE "0:"
    INDEX 01 08:32:54
  TRACK 402 AUDIO
    TITLE "28:cjc024_4196"
    INDEX 01 08:33:56
  TRACK 403 AUDIO
    TITLE "0:"
    INDEX 01 08:34:61
  TRACK 404 AUDIO
    TITLE "29:cjc024_4197"
    INDEX 01 08:35:23
  TRACK 405 AUDIO
    TITLE "0:"
    INDEX 01 08:38:37
  TRACK 406 AUDIO
    TITLE "30:cjc024_4198"
    INDEX 01 08:39:02
  TRACK 407 AUDIO
    TITLE "0:"
    INDEX 01 08:42:10
  TRACK 408 AUDIO
    TITLE "31:cjc024_4199"
    INDEX 01 08:42:33
  TRACK 409 AUDIO
    TITLE "0:"
    INDEX 01 08:45:41
  TRACK 410 AUDIO
    TITLE "28:cjc024_4200"
    INDEX 01 08:46:43
  TRACK 411 AUDIO
    TITLE "0:"
    INDEX 01 08:47:42
  TRACK 412 AUDIO
    TITLE "29:cjc024_4201"
    INDEX 01 08:48:08
  TRACK 413 AUDIO
    TITLE "0:"
    INDEX 01 08:50:25
  TRACK 414 AUDIO
    TITLE "30:cjc024_4202"
    INDEX 01 08:50:62
  TRACK 415 AUDIO
    TITLE "0:"
    INDEX 01 08:53:08
  TRACK 416 AUDIO
    TITLE "31:cjc024_4203"
    INDEX 01 08:53:33
  TRACK 417 AUDIO
    TITLE "0:"
    INDEX 01 08:55:51
  TRACK 418 AUDIO
    TITLE "28:cjc024_4204"
    INDEX 01 08:56:55
  TRACK 419 AUDIO
    TITLE "0:"
    INDEX 01 08:57:64
  TRACK 420 AUDIO
    TITLE "29:cjc024_4205"
    INDEX 01 08:58:24
  TRACK 421 AUDIO
    TITLE "0:"
    INDEX 01 09:01:27
  TRACK 422 AUDIO
    TITLE "30:cjc024_4206"
    INDEX 01 09:01:62
  TRACK 423 AUDIO
    TITLE "0:"
    INDEX 01 09:03:73
  TRACK 424 AUDIO
    TITLE "31:cjc024_4207"
    INDEX 01 09:04:21
  TRACK 425 AUDIO
    TITLE "0:"
    INDEX 01 09:06:30
  TRACK 426 AUDIO
    TITLE "28:cjc024_4208"
    INDEX 01 09:07:27
  TRACK 427 AUDIO
    TITLE "0:"
    INDEX 01 09:08:35
  TRACK 428 AUDIO
    TITLE "29:cjc024_4209"
    INDEX 01 09:08:74
  TRACK 429 AUDIO
    TITLE "0:"
    INDEX 01 09:10:39
  TRACK 430 AUDIO
    TITLE "30:cjc024_4210"
    INDEX 01 09:11:02
  TRACK 431 AUDIO
    TITLE "0:"
    INDEX 01 09:12:30
  TRACK 432 AUDIO
    TITLE "31:cjc024_4211"
    INDEX 01 09:12:58
  TRACK 433 AUDIO
    TITLE "0:"
    INDEX 01 09:14:12
  TRACK 434 AUDIO
    TITLE "28:cjc024_4212"
    INDEX 01 09:15:11
  TRACK 435 AUDIO
    TITLE "0:"
    INDEX 01 09:16:12
  TRACK 436 AUDIO
    TITLE "29:cjc024_4213"
    INDEX 01 09:16:54
  TRACK 437 AUDIO
    TITLE "0:"
    INDEX 01 09:19:40
  TRACK 438 AUDIO
    TITLE "30:cjc024_4214"
    INDEX 01 09:20:02
  TRACK 439 AUDIO
    TITLE "0:"
    INDEX 01 09:22:29
  TRACK 440 AUDIO
    TITLE "31:cjc024_4215"
    INDEX 01 09:22:52
  TRACK 441 AUDIO
    TITLE "0:"
    INDEX 01 09:25:04
  TRACK 442 AUDIO
    TITLE "28:cjc024_4216"
    INDEX 01 09:26:03
  TRACK 443 AUDIO
    TITLE "0:"
    INDEX 01 09:27:06
  TRACK 444 AUDIO
    TITLE "29:cjc024_4217"
    INDEX 01 09:27:48
  TRACK 445 AUDIO
    TITLE "0:"
    INDEX 01 09:29:23
  TRACK 446 AUDIO
    TITLE "30:cjc024_4218"
    INDEX 01 09:29:60
  TRACK 447 AUDIO
    TITLE "0:"
    INDEX 01 09:31:51
  TRACK 448 AUDIO
    TITLE "31:cjc024_4219"
    INDEX 01 09:32:04
  TRACK 449 AUDIO
    TITLE "0:"
    INDEX 01 09:33:68
  TRACK 450 AUDIO
    TITLE "28:cjc024_4220"
    INDEX 01 09:34:67
  TRACK 451 AUDIO
    TITLE "0:"
    INDEX 01 09:36:07
  TRACK 452 AUDIO
    TITLE "29:cjc024_4221"
    INDEX 01 09:36:47
  TRACK 453 AUDIO
    TITLE "0:"
    INDEX 01 09:38:41
  TRACK 454 AUDIO
    TITLE "30:cjc024_4222"
    INDEX 01 09:39:08
  TRACK 455 AUDIO
    TITLE "0:"
    INDEX 01 09:40:54
  TRACK 456 AUDIO
    TITLE "31:cjc024_4223"
    INDEX 01 09:41:07
  TRACK 457 AUDIO
    TITLE "0:"
    INDEX 01 09:42:55
  TRACK 458 AUDIO
    TITLE "28:cjc024_4224"
    INDEX 01 09:43:54
  TRACK 459 AUDIO
    TITLE "0:"
    INDEX 01 09:44:64
  TRACK 460 AUDIO
    TITLE "29:cjc024_4225"
    INDEX 01 09:45:22
  TRACK 461 AUDIO
    TITLE "0:"
    INDEX 01 09:48:61
  TRACK 462 AUDIO
    TITLE "30:cjc024_4226"
    INDEX 01 09:49:24
  TRACK 463 AUDIO
    TITLE "0:"
    INDEX 01 09:51:42
  TRACK 464 AUDIO
    TITLE "31:cjc024_4227"
    INDEX 01 09:51:70
  TRACK 465 AUDIO
    TITLE "0:"
    INDEX 01 09:54:13
  TRACK 466 AUDIO
    TITLE "28:cjc024_4228"
    INDEX 01 09:55:18
  TRACK 467 AUDIO
    TITLE "0:"
    INDEX 01 09:56:39
  TRACK 468 AUDIO
    TITLE "29:cjc024_4229"
    INDEX 01 09:57:06
  TRACK 469 AUDIO
    TITLE "0:"
    INDEX 01 09:58:68
  TRACK 470 AUDIO
    TITLE "30:cjc024_4230"
    INDEX 01 09:59:28
  TRACK 471 AUDIO
    TITLE "0:"
    INDEX 01 10:00:71
  TRACK 472 AUDIO
    TITLE "31:cjc024_4231"
    INDEX 01 10:01:23
  TRACK 473 AUDIO
    TITLE "0:"
    INDEX 01 10:02:66
  TRACK 474 AUDIO
    TITLE "28:cjc024_4232"
    INDEX 01 10:03:67
  TRACK 475 AUDIO
    TITLE "0:"
    INDEX 01 10:05:03
  TRACK 476 AUDIO
    TITLE "29:cjc024_4233"
    INDEX 01 10:05:42
  TRACK 477 AUDIO
    TITLE "0:"
    INDEX 01 10:07:33
  TRACK 478 AUDIO
    TITLE "30:cjc024_4234"
    INDEX 01 10:07:73
  TRACK 479 AUDIO
    TITLE "0:"
    INDEX 01 10:09:56
  TRACK 480 AUDIO
    TITLE "31:cjc024_4235"
    INDEX 01 10:10:02
  TRACK 481 AUDIO
    TITLE "0:"
    INDEX 01 10:11:63
  TRACK 482 AUDIO
    TITLE "28:cjc024_4236"
    INDEX 01 10:12:60
  TRACK 483 AUDIO
    TITLE "0:"
    INDEX 01 10:13:63
  TRACK 484 AUDIO
    TITLE "29:cjc024_4237"
    INDEX 01 10:14:30
  TRACK 485 AUDIO
    TITLE "0:"
    INDEX 01 10:16:23
  TRACK 486 AUDIO
    TITLE "30:cjc024_4238"
    INDEX 01 10:16:56
  TRACK 487 AUDIO
    TITLE "0:"
    INDEX 01 10:18:41
  TRACK 488 AUDIO
    TITLE "31:cjc024_4239"
    INDEX 01 10:18:66
  TRACK 489 AUDIO
    TITLE "0:"
    INDEX 01 10:20:56
  TRACK 490 AUDIO
    TITLE "28:cjc024_4240"
    INDEX 01 10:21:57
  TRACK 491 AUDIO
    TITLE "0:"
    INDEX 01 10:22:72
  TRACK 492 AUDIO
    TITLE "29:cjc024_4241"
    INDEX 01 10:23:36
  TRACK 493 AUDIO
    TITLE "0:"
    INDEX 01 10:26:19
  TRACK 494 AUDIO
    TITLE "30:cjc024_4242"
    INDEX 01 10:26:56
  TRACK 495 AUDIO
    TITLE "0:"
    INDEX 01 10:29:33
  TRACK 496 AUDIO
    TITLE "31:cjc024_4243"
    INDEX 01 10:29:57
  TRACK 497 AUDIO
    TITLE "0:"
    INDEX 01 10:32:33
  TRACK 498 AUDIO
    TITLE "28:cjc024_4244"
    INDEX 01 10:33:35
  TRACK 499 AUDIO
    TITLE "0:"
    INDEX 01 10:34:30
  TRACK 500 AUDIO
    TITLE "29:cjc024_4245"
    INDEX 01 10:34:67
  TRACK 501 AUDIO
    TITLE "0:"
    INDEX 01 10:36:25
  TRACK 502 AUDIO
    TITLE "30:cjc024_4246"
    INDEX 01 10:36:62
  TRACK 503 AUDIO
    TITLE "0:"
    INDEX 01 10:38:40
  TRACK 504 AUDIO
    TITLE "31:cjc024_4247"
    INDEX 01 10:38:59
  TRACK 505 AUDIO
    TITLE "0:"
    INDEX 01 10:40:37
  TRACK 506 AUDIO
    TITLE "28:cjc024_4248"
    INDEX 01 10:41:32
  TRACK 507 AUDIO
    TITLE "0:"
    INDEX 01 10:42:36
  TRACK 508 AUDIO
    TITLE "29:cjc024_4249"
    INDEX 01 10:43:19
  TRACK 509 AUDIO
    TITLE "0:"
    INDEX 01 10:44:46
  TRACK 510 AUDIO
    TITLE "30:cjc024_4250"
    INDEX 01 10:45:09
  TRACK 511 AUDIO
    TITLE "0:"
    INDEX 01 10:46:47
  TRACK 512 AUDIO
    TITLE "31:cjc024_4251"
    INDEX 01 10:46:73
  TRACK 513 AUDIO
    TITLE "0:"
    INDEX 01 10:48:34
  TRACK 514 AUDIO
    TITLE "28:cjc024_4252"
    INDEX 01 10:49:36
  TRACK 515 AUDIO
    TITLE "0:"
    INDEX 01 10:50:43
  TRACK 516 AUDIO
    TITLE "29:cjc024_4253"
    INDEX 01 10:51:05
  TRACK 517 AUDIO
    TITLE "0:"
    INDEX 01 10:53:33
  TRACK 518 AUDIO
    TITLE "30:cjc024_4254"
    INDEX 01 10:53:73
  TRACK 519 AUDIO
    TITLE "0:"
    INDEX 01 10:56:02
  TRACK 520 AUDIO
    TITLE "31:cjc024_4255"
    INDEX 01 10:56:28
  TRACK 521 AUDIO
    TITLE "0:"
    INDEX 01 10:58:39
  TRACK 522 AUDIO
    TITLE "28:cjc024_4256"
    INDEX 01 10:59:36
  TRACK 523 AUDIO
    TITLE "0:"
    INDEX 01 11:00:41
  TRACK 524 AUDIO
    TITLE "29:cjc024_4257"
    INDEX 01 11:01:08
  TRACK 525 AUDIO
    TITLE "0:"
    INDEX 01 11:04:10
  TRACK 526 AUDIO
    TITLE "30:cjc024_4258"
    INDEX 01 11:04:47
  TRACK 527 AUDIO
    TITLE "0:"
    INDEX 01 11:07:38
  TRACK 528 AUDIO
    TITLE "31:cjc024_4259"
    INDEX 01 11:07:61
  TRACK 529 AUDIO
    TITLE "0:"
    INDEX 01 11:10:52
  TRACK 530 AUDIO
    TITLE "28:cjc024_4260"
    INDEX 01 11:11:47
  TRACK 531 AUDIO
    TITLE "0:"
    INDEX 01 11:12:54
  TRACK 532 AUDIO
    TITLE "29:cjc024_4261"
    INDEX 01 11:13:24
  TRACK 533 AUDIO
    TITLE "0:"
    INDEX 01 11:15:27
  TRACK 534 AUDIO
    TITLE "30:cjc024_4262"
    INDEX 01 11:15:70
  TRACK 535 AUDIO
    TITLE "0:"
    INDEX 01 11:17:50
  TRACK 536 AUDIO
    TITLE "31:cjc024_4263"
    INDEX 01 11:18:02
  TRACK 537 AUDIO
    TITLE "0:"
    INDEX 01 11:19:56
  TRACK 538 AUDIO
    TITLE "28:cjc024_4264"
    INDEX 01 11:20:58
  TRACK 539 AUDIO
    TITLE "0:"
    INDEX 01 11:22:10
  TRACK 540 AUDIO
    TITLE "29:cjc024_4265"
    INDEX 01 11:22:45
  TRACK 541 AUDIO
    TITLE "0:"
    INDEX 01 11:24:54
  TRACK 542 AUDIO
    TITLE "30:cjc024_4266"
    INDEX 01 11:25:16
  TRACK 543 AUDIO
    TITLE "0:"
    INDEX 01 11:27:11
  TRACK 544 AUDIO
    TITLE "31:cjc024_4267"
    INDEX 01 11:27:36
  TRACK 545 AUDIO
    TITLE "0:"
    INDEX 01 11:29:31
  TRACK 546 AUDIO
    TITLE "28:cjc024_4268"
    INDEX 01 11:30:41
  TRACK 547 AUDIO
    TITLE "0:"
    INDEX 01 11:31:40
  TRACK 548 AUDIO
    TITLE "29:cjc024_4269"
    INDEX 01 11:32:04
  TRACK 549 AUDIO
    TITLE "0:"
    INDEX 01 11:33:60
  TRACK 550 AUDIO
    TITLE "30:cjc024_4270"
    INDEX 01 11:34:25
  TRACK 551 AUDIO
    TITLE "0:"
    INDEX 01 11:36:00
  TRACK 552 AUDIO
    TITLE "31:cjc024_4271"
    INDEX 01 11:36:24
  TRACK 553 AUDIO
    TITLE "0:"
    INDEX 01 11:38:01
  TRACK 554 AUDIO
    TITLE "28:cjc024_4272"
    INDEX 01 11:38:73
  TRACK 555 AUDIO
    TITLE "0:"
    INDEX 01 11:40:08
  TRACK 556 AUDIO
    TITLE "29:cjc024_4273"
    INDEX 01 11:40:55
  TRACK 557 AUDIO
    TITLE "0:"
    INDEX 01 11:43:04
  TRACK 558 AUDIO
    TITLE "30:cjc024_4274"
    INDEX 01 11:43:39
  TRACK 559 AUDIO
    TITLE "0:"
    INDEX 01 11:45:66
  TRACK 560 AUDIO
    TITLE "31:cjc024_4275"
    INDEX 01 11:46:10
  TRACK 561 AUDIO
    TITLE "0:"
    INDEX 01 11:48:36
  TRACK 562 AUDIO
    TITLE "28:cjc024_4276"
    INDEX 01 11:49:38
  TRACK 563 AUDIO
    TITLE "0:"
    INDEX 01 11:50:47
  TRACK 564 AUDIO
    TITLE "29:cjc024_4277"
    INDEX 01 11:51:07
  TRACK 565 AUDIO
    TITLE "0:"
    INDEX 01 11:54:12
  TRACK 566 AUDIO
    TITLE "30:cjc024_4278"
    INDEX 01 11:54:47
  TRACK 567 AUDIO
    TITLE "0:"
    INDEX 01 11:56:69
  TRACK 568 AUDIO
    TITLE "31:cjc024_4279"
    INDEX 01 11:57:22
  TRACK 569 AUDIO
    TITLE "0:"
    INDEX 01 11:59:42
  TRACK 570 AUDIO
    TITLE "28:cjc024_4280"
    INDEX 01 12:00:48
  TRACK 571 AUDIO
    TITLE "0:"
    INDEX 01 12:01:61
  TRACK 572 AUDIO
    TITLE "29:cjc024_4281"
    INDEX 01 12:02:25
  TRACK 573 AUDIO
    TITLE "0:"
    INDEX 01 12:05:06
  TRACK 574 AUDIO
    TITLE "30:cjc024_4282"
    INDEX 01 12:05:45
  TRACK 575 AUDIO
    TITLE "0:"
    INDEX 01 12:07:55
  TRACK 576 AUDIO
    TITLE "31:cjc024_4283"
    INDEX 01 12:08:08
  TRACK 577 AUDIO
    TITLE "0:"
    INDEX 01 12:10:17
  TRACK 578 AUDIO
    TITLE "28:cjc024_4284"
    INDEX 01 12:11:20
  TRACK 579 AUDIO
    TITLE "0:"
    INDEX 01 12:12:23
  TRACK 580 AUDIO
    TITLE "29:cjc024_4285"
    INDEX 01 12:12:62
  TRACK 581 AUDIO
    TITLE "0:"
    INDEX 01 12:16:70
  TRACK 582 AUDIO
    TITLE "30:cjc024_4286"
    INDEX 01 12:17:32
  TRACK 583 AUDIO
    TITLE "0:"
    INDEX 01 12:20:42
  TRACK 584 AUDIO
    TITLE "31:cjc024_4287"
    INDEX 01 12:20:70
  TRACK 585 AUDIO
    TITLE "0:"
    INDEX 01 12:24:05
  TRACK 586 AUDIO
    TITLE "28:cjc024_4288"
    INDEX 01 12:25:02
  TRACK 587 AUDIO
    TITLE "0:"
    INDEX 01 12:26:06
  TRACK 588 AUDIO
    TITLE "29:cjc024_4289"
    INDEX 01 12:26:43
  TRACK 589 AUDIO
    TITLE "0:"
    INDEX 01 12:31:72
  TRACK 590 AUDIO
    TITLE "30:cjc024_4290"
    INDEX 01 12:32:36
  TRACK 591 AUDIO
    TITLE "0:"
    INDEX 01 12:35:15
  TRACK 592 AUDIO
    TITLE "31:cjc024_4291"
    INDEX 01 12:35:38
  TRACK 593 AUDIO
    TITLE "0:"
    INDEX 01 12:38:21
  TRACK 594 AUDIO
    TITLE "28:cjc024_4292"
    INDEX 01 12:39:18
  TRACK 595 AUDIO
    TITLE "0:"
    INDEX 01 12:40:37
  TRACK 596 AUDIO
    TITLE "29:cjc024_4293"
    INDEX 01 12:40:74
  TRACK 597 AUDIO
    TITLE "0:"
    INDEX 01 12:42:42
  TRACK 598 AUDIO
    TITLE "30:cjc024_4294"
    INDEX 01 12:43:04
  TRACK 599 AUDIO
    TITLE "0:"
    INDEX 01 12:44:59
  TRACK 600 AUDIO
    TITLE "31:cjc024_4295"
    INDEX 01 12:45:05
  TRACK 601 AUDIO
    TITLE "0:"
    INDEX 01 12:46:55
  TRACK 602 AUDIO
    TITLE "28:cjc024_4296"
    INDEX 01 12:47:57
  TRACK 603 AUDIO
    TITLE "0:"
    INDEX 01 12:48:66
  TRACK 604 AUDIO
    TITLE "29:cjc024_4297"
    INDEX 01 12:49:32
  TRACK 605 AUDIO
    TITLE "0:"
    INDEX 01 12:50:63
  TRACK 606 AUDIO
    TITLE "30:cjc024_4298"
    INDEX 01 12:51:25
  TRACK 607 AUDIO
    TITLE "0:"
    INDEX 01 12:53:18
  TRACK 608 AUDIO
    TITLE "31:cjc024_4299"
    INDEX 01 12:53:44
  TRACK 609 AUDIO
    TITLE "0:"
    INDEX 01 12:55:37
  TRACK 610 AUDIO
    TITLE "28:cjc024_4300"
    INDEX 01 12:56:34
  TRACK 611 AUDIO
    TITLE "0:"
    INDEX 01 12:57:42
  TRACK 612 AUDIO
    TITLE "29:cjc024_4301"
    INDEX 01 12:58:06
  TRACK 613 AUDIO
    TITLE "0:"
    INDEX 01 13:02:02
  TRACK 614 AUDIO
    TITLE "30:cjc024_4302"
    INDEX 01 13:02:37
  TRACK 615 AUDIO
    TITLE "0:"
    INDEX 01 13:04:69
  TRACK 616 AUDIO
    TITLE "31:cjc024_4303"
    INDEX 01 13:05:20
  TRACK 617 AUDIO
    TITLE "0:"
    INDEX 01 13:07:54
  TRACK 618 AUDIO
    TITLE "28:cjc024_4304"
    INDEX 01 13:08:51
  TRACK 619 AUDIO
    TITLE "0:"
    INDEX 01 13:09:66
  TRACK 620 AUDIO
    TITLE "29:cjc024_4305"
    INDEX 01 13:10:30
  TRACK 621 AUDIO
    TITLE "0:"
    INDEX 01 13:12:57
  TRACK 622 AUDIO
    TITLE "30:cjc024_4306"
    INDEX 01 13:13:17
  TRACK 623 AUDIO
    TITLE "0:"
    INDEX 01 13:15:41
  TRACK 624 AUDIO
    TITLE "31:cjc024_4307"
    INDEX 01 13:15:71
  TRACK 625 AUDIO
    TITLE "0:"
    INDEX 01 13:18:16
  TRACK 626 AUDIO
    TITLE "28:cjc024_4308"
    INDEX 01 13:19:20
  TRACK 627 AUDIO
    TITLE "0:"
    INDEX 01 13:20:39
  TRACK 628 AUDIO
    TITLE "29:cjc024_4309"
    INDEX 01 13:21:01
  TRACK 629 AUDIO
    TITLE "0:"
    INDEX 01 13:22:51
  TRACK 630 AUDIO
    TITLE "30:cjc024_4310"
    INDEX 01 13:23:15
  TRACK 631 AUDIO
    TITLE "0:"
    INDEX 01 13:25:07
  TRACK 632 AUDIO
    TITLE "31:cjc024_4311"
    INDEX 01 13:25:30
  TRACK 633 AUDIO
    TITLE "0:"
    INDEX 01 13:27:21
  TRACK 634 AUDIO
    TITLE "28:cjc024_4312"
    INDEX 01 13:28:23
  TRACK 635 AUDIO
    TITLE "0:"
    INDEX 01 13:29:28
  TRACK 636 AUDIO
    TITLE "29:cjc024_4313"
    INDEX 01 13:29:61
  TRACK 637 AUDIO
    TITLE "0:"
    INDEX 01 13:31:56
  TRACK 638 AUDIO
    TITLE "30:cjc024_4314"
    INDEX 01 13:32:22
  TRACK 639 AUDIO
    TITLE "0:"
    INDEX 01 13:33:63
  TRACK 640 AUDIO
    TITLE "31:cjc024_4315"
    INDEX 01 13:34:13
  TRACK 641 AUDIO
    TITLE "0:"
    INDEX 01 13:35:54
  TRACK 642 AUDIO
    TITLE "28:cjc024_4316"
    INDEX 01 13:36:53
  TRACK 643 AUDIO
    TITLE "0:"
    INDEX 01 13:37:69
  TRACK 644 AUDIO
    TITLE "29:cjc024_4317"
    INDEX 01 13:38:33
  TRACK 645 AUDIO
    TITLE "0:"
    INDEX 01 13:40:28
  TRACK 646 AUDIO
    TITLE "30:cjc024_4318"
    INDEX 01 13:40:65
  TRACK 647 AUDIO
    TITLE "0:"
    INDEX 01 13:42:72
  TRACK 648 AUDIO
    TITLE "31:cjc024_4319"
    INDEX 01 13:43:26
  TRACK 649 AUDIO
    TITLE "0:"
    INDEX 01 13:45:35
  TRACK 650 AUDIO
    TITLE "28:cjc024_4320"
    INDEX 01 13:46:38
  TRACK 651 AUDIO
    TITLE "0:"
    INDEX 01 13:47:41
  TRACK 652 AUDIO
    TITLE "29:cjc024_4321"
    INDEX 01 13:48:08
  TRACK 653 AUDIO
    TITLE "0:"
    INDEX 01 13:51:57
  TRACK 654 AUDIO
    TITLE "30:cjc024_4322"
    INDEX 01 13:52:15
  TRACK 655 AUDIO
    TITLE "0:"
    INDEX 01 13:55:12
  TRACK 656 AUDIO
    TITLE "31:cjc024_4323"
    INDEX 01 13:55:33
  TRACK 657 AUDIO
    TITLE "0:"
    INDEX 01 13:58:30
  TRACK 658 AUDIO
    TITLE "28:cjc024_4324"
    INDEX 01 13:59:25
  TRACK 659 AUDIO
    TITLE "0:"
    INDEX 01 14:00:30
  TRACK 660 AUDIO
    TITLE "29:cjc024_4325"
    INDEX 01 14:00:72
  TRACK 661 AUDIO
    TITLE "0:"
    INDEX 01 14:03:21
  TRACK 662 AUDIO
    TITLE "30:cjc024_4326"
    INDEX 01 14:03:54
  TRACK 663 AUDIO
    TITLE "0:"
    INDEX 01 14:06:13
  TRACK 664 AUDIO
    TITLE "31:cjc024_4327"
    INDEX 01 14:06:43
  TRACK 665 AUDIO
    TITLE "0:"
    INDEX 01 14:09:00
  TRACK 666 AUDIO
    TITLE "28:cjc024_4328"
    INDEX 01 14:09:74
  TRACK 667 AUDIO
    TITLE "0:"
    INDEX 01 14:11:07
  TRACK 668 AUDIO
    TITLE "29:cjc024_4329"
    INDEX 01 14:11:44
  TRACK 669 AUDIO
    TITLE "0:"
    INDEX 01 14:14:60
  TRACK 670 AUDIO
    TITLE "30:cjc024_4330"
    INDEX 01 14:15:18
  TRACK 671 AUDIO
    TITLE "0:"
    INDEX 01 14:18:13
  TRACK 672 AUDIO
    TITLE "31:cjc024_4331"
    INDEX 01 14:18:34
  TRACK 673 AUDIO
    TITLE "0:"
    INDEX 01 14:21:27
  TRACK 674 AUDIO
    TITLE "28:cjc024_4332"
    INDEX 01 14:22:26
  TRACK 675 AUDIO
    TITLE "0:"
    INDEX 01 14:23:35
  TRACK 676 AUDIO
    TITLE "29:cjc024_4333"
    INDEX 01 14:24:00
  TRACK 677 AUDIO
    TITLE "0:"
    INDEX 01 14:26:32
  TRACK 678 AUDIO
    TITLE "30:cjc024_4334"
    INDEX 01 14:26:73
  TRACK 679 AUDIO
    TITLE "0:"
    INDEX 01 14:29:38
  TRACK 680 AUDIO
    TITLE "31:cjc024_4335"
    INDEX 01 14:30:02
  TRACK 681 AUDIO
    TITLE "0:"
    INDEX 01 14:32:40
  TRACK 682 AUDIO
    TITLE "28:cjc024_4336"
    INDEX 01 14:33:61
  TRACK 683 AUDIO
    TITLE "0:"
    INDEX 01 14:34:59
  TRACK 684 AUDIO
    TITLE "29:cjc024_4337"
    INDEX 01 14:35:23
  TRACK 685 AUDIO
    TITLE "0:"
    INDEX 01 14:39:23
  TRACK 686 AUDIO
    TITLE "30:cjc024_4338"
    INDEX 01 14:39:64
  TRACK 687 AUDIO
    TITLE "0:"
    INDEX 01 14:42:35
  TRACK 688 AUDIO
    TITLE "31:cjc024_4339"
    INDEX 01 14:42:68
  TRACK 689 AUDIO
    TITLE "0:"
    INDEX 01 14:45:39
  TRACK 690 AUDIO
    TITLE "28:cjc024_4340"
    INDEX 01 14:46:42
  TRACK 691 AUDIO
    TITLE "0:"
    INDEX 01 14:47:48
  TRACK 692 AUDIO
    TITLE "29:cjc024_4341"
    INDEX 01 14:48:16
  TRACK 693 AUDIO
    TITLE "0:"
    INDEX 01 14:49:45
  TRACK 694 AUDIO
    TITLE "30:cjc024_4342"
    INDEX 01 14:50:11
  TRACK 695 AUDIO
    TITLE "0:"
    INDEX 01 14:51:38
  TRACK 696 AUDIO
    TITLE "31:cjc024_4343"
    INDEX 01 14:51:67
  TRACK 697 AUDIO
    TITLE "0:"
    INDEX 01 14:53:21
  TRACK 698 AUDIO
    TITLE "28:cjc024_4344"
    INDEX 01 14:54:24
  TRACK 699 AUDIO
    TITLE "0:"
    INDEX 01 14:55:27
  TRACK 700 AUDIO
    TITLE "29:cjc024_4345"
    INDEX 01 14:56:05
  TRACK 701 AUDIO
    TITLE "0:"
    INDEX 01 14:57:52
  TRACK 702 AUDIO
    TITLE "30:cjc024_4346"
    INDEX 01 14:58:18
  TRACK 703 AUDIO
    TITLE "0:"
    INDEX 01 14:59:43
  TRACK 704 AUDIO
    TITLE "31:cjc024_4347"
    INDEX 01 14:59:74
  TRACK 705 AUDIO
    TITLE "0:"
    INDEX 01 15:01:28
  TRACK 706 AUDIO
    TITLE "28:cjc024_4348"
    INDEX 01 15:02:31
  TRACK 707 AUDIO
    TITLE "0:"
    INDEX 01 15:03:56
  TRACK 708 AUDIO
    TITLE "29:cjc024_4349"
    INDEX 01 15:04:23
  TRACK 709 AUDIO
    TITLE "0:"
    INDEX 01 15:06:02
  TRACK 710 AUDIO
    TITLE "30:cjc024_4350"
    INDEX 01 15:06:37
  TRACK 711 AUDIO
    TITLE "0:"
    INDEX 01 15:08:61
  TRACK 712 AUDIO
    TITLE "31:cjc024_4351"
    INDEX 01 15:09:18
  TRACK 713 AUDIO
    TITLE "0:"
    INDEX 01 15:11:40
  TRACK 714 AUDIO
    TITLE "28:cjc024_4352"
    INDEX 01 15:12:44
  TRACK 715 AUDIO
    TITLE "0:"
    INDEX 01 15:13:67
  TRACK 716 AUDIO
    TITLE "29:cjc024_4353"
    INDEX 01 15:14:31
  TRACK 717 AUDIO
    TITLE "0:"
    INDEX 01 15:16:24
  TRACK 718 AUDIO
    TITLE "30:cjc024_4354"
    INDEX 01 15:16:61
  TRACK 719 AUDIO
    TITLE "0:"
    INDEX 01 15:18:54
  TRACK 720 AUDIO
    TITLE "31:cjc024_4355"
    INDEX 01 15:19:03
  TRACK 721 AUDIO
    TITLE "0:"
    INDEX 01 15:20:71
  TRACK 722 AUDIO
    TITLE "28:cjc024_4356"
    INDEX 01 15:21:72
  TRACK 723 AUDIO
    TITLE "0:"
    INDEX 01 15:23:06
  TRACK 724 AUDIO
    TITLE "29:cjc024_4357"
    INDEX 01 15:23:43
  TRACK 725 AUDIO
    TITLE "0:"
    INDEX 01 15:25:64
  TRACK 726 AUDIO
    TITLE "30:cjc024_4358"
    INDEX 01 15:26:24
  TRACK 727 AUDIO
    TITLE "0:"
    INDEX 01 15:28:45
  TRACK 728 AUDIO
    TITLE "31:cjc024_4359"
    INDEX 01 15:28:68
  TRACK 729 AUDIO
    TITLE "0:"
    INDEX 01 15:31:12
  TRACK 730 AUDIO
    TITLE "28:cjc024_4360"
    INDEX 01 15:32:13
  TRACK 731 AUDIO
    TITLE "0:"
    INDEX 01 15:33:22
  TRACK 732 AUDIO
    TITLE "29:cjc024_4361"
    INDEX 01 15:33:69
  TRACK 733 AUDIO
    TITLE "0:"
    INDEX 01 15:36:23
  TRACK 734 AUDIO
    TITLE "30:cjc024_4362"
    INDEX 01 15:36:60
  TRACK 735 AUDIO
    TITLE "0:"
    INDEX 01 15:38:72
  TRACK 736 AUDIO
    TITLE "31:cjc024_4363"
    INDEX 01 15:39:21
  TRACK 737 AUDIO
    TITLE "0:"
    INDEX 01 15:41:35
  TRACK 738 AUDIO
    TITLE "28:cjc024_4364"
    INDEX 01 15:42:37
  TRACK 739 AUDIO
    TITLE "0:"
    INDEX 01 15:43:42
  TRACK 740 AUDIO
    TITLE "29:cjc024_4365"
    INDEX 01 15:44:06
  TRACK 741 AUDIO
    TITLE "0:"
    INDEX 01 15:46:60
  TRACK 742 AUDIO
    TITLE "30:cjc024_4366"
    INDEX 01 15:47:22
  TRACK 743 AUDIO
    TITLE "0:"
    INDEX 01 15:49:51
  TRACK 744 AUDIO
    TITLE "31:cjc024_4367"
    INDEX 01 15:49:72
  TRACK 745 AUDIO
    TITLE "0:"
    INDEX 01 15:52:24
  TRACK 746 AUDIO
    TITLE "28:cjc024_4368"
    INDEX 01 15:53:25
  TRACK 747 AUDIO
    TITLE "0:"
    INDEX 01 15:54:48
  TRACK 748 AUDIO
    TITLE "29:cjc024_4369"
    INDEX 01 15:55:08
  TRACK 749 AUDIO
    TITLE "0:"
    INDEX 01 15:58:24
  TRACK 750 AUDIO
    TITLE "30:cjc024_4370"
    INDEX 01 15:58:61
  TRACK 751 AUDIO
    TITLE "0:"
    INDEX 01 16:01:19
  TRACK 752 AUDIO
    TITLE "31:cjc024_4371"
    INDEX 01 16:01:46
  TRACK 753 AUDIO
    TITLE "0:"
    INDEX 01 16:03:74
  TRACK 754 AUDIO
    TITLE "28:cjc024_4372"
    INDEX 01 16:05:03
  TRACK 755 AUDIO
    TITLE "0:"
    INDEX 01 16:06:12
  TRACK 756 AUDIO
    TITLE "29:cjc024_4373"
    INDEX 01 16:06:47
  TRACK 757 AUDIO
    TITLE "0:"
    INDEX 01 16:08:26
  TRACK 758 AUDIO
    TITLE "30:cjc024_4374"
    INDEX 01 16:08:66
  TRACK 759 AUDIO
    TITLE "0:"
    INDEX 01 16:10:55
  TRACK 760 AUDIO
    TITLE "31:cjc024_4375"
    INDEX 01 16:11:03
  TRACK 761 AUDIO
    TITLE "0:"
    INDEX 01 16:12:69
  TRACK 762 AUDIO
    TITLE "28:cjc024_4376"
    INDEX 01 16:13:71
  TRACK 763 AUDIO
    TITLE "0:"
    INDEX 01 16:15:07
  TRACK 764 AUDIO
    TITLE "29:cjc024_4377"
    INDEX 01 16:15:44
  TRACK 765 AUDIO
    TITLE "0:"
    INDEX 01 16:17:20
  TRACK 766 AUDIO
    TITLE "30:cjc024_4378"
    INDEX 01 16:17:59
  TRACK 767 AUDIO
    TITLE "0:"
    INDEX 01 16:19:30
  TRACK 768 AUDIO
    TITLE "31:cjc024_4379"
    INDEX 01 16:19:58
  TRACK 769 AUDIO
    TITLE "0:"
    INDEX 01 16:21:33
  TRACK 770 AUDIO
    TITLE "28:cjc024_4380"
    INDEX 01 16:22:30
  TRACK 771 AUDIO
    TITLE "0:"
    INDEX 01 16:23:38
  TRACK 772 AUDIO
    TITLE "29:cjc024_4381"
    INDEX 01 16:24:04
  TRACK 773 AUDIO
    TITLE "0:"
    INDEX 01 16:25:52
  TRACK 774 AUDIO
    TITLE "30:cjc024_4382"
    INDEX 01 16:26:17
  TRACK 775 AUDIO
    TITLE "0:"
    INDEX 01 16:28:19
  TRACK 776 AUDIO
    TITLE "31:cjc024_4383"
    INDEX 01 16:28:45
  TRACK 777 AUDIO
    TITLE "0:"
    INDEX 01 16:30:50
  TRACK 778 AUDIO
    TITLE "28:cjc024_4384"
    INDEX 01 16:31:49
  TRACK 779 AUDIO
    TITLE "0:"
    INDEX 01 16:32:50
  TRACK 780 AUDIO
    TITLE "29:cjc024_4385"
    INDEX 01 16:33:15
  TRACK 781 AUDIO
    TITLE "0:"
    INDEX 01 16:35:15
  TRACK 782 AUDIO
    TITLE "30:cjc024_4386"
    INDEX 01 16:35:55
  TRACK 783 AUDIO
    TITLE "0:"
    INDEX 01 16:37:20
  TRACK 784 AUDIO
    TITLE "31:cjc024_4387"
    INDEX 01 16:37:48
  TRACK 785 AUDIO
    TITLE "0:"
    INDEX 01 16:39:11
  TRACK 786 AUDIO
    TITLE "28:cjc024_4388"
    INDEX 01 16:40:15
  TRACK 787 AUDIO
    TITLE "0:"
    INDEX 01 16:41:14
  TRACK 788 AUDIO
    TITLE "29:cjc024_4389"
    INDEX 01 16:41:51
  TRACK 789 AUDIO
    TITLE "0:"
    INDEX 01 16:43:70
  TRACK 790 AUDIO
    TITLE "30:cjc024_4390"
    INDEX 01 16:44:28
  TRACK 791 AUDIO
    TITLE "0:"
    INDEX 01 16:46:06
  TRACK 792 AUDIO
    TITLE "31:cjc024_4391"
    INDEX 01 16:46:29
  TRACK 793 AUDIO
    TITLE "0:"
    INDEX 01 16:48:00
  TRACK 794 AUDIO
    TITLE "28:cjc024_4392"
    INDEX 01 16:49:04
  TRACK 795 AUDIO
    TITLE "0:"
    INDEX 01 16:50:19
  TRACK 796 AUDIO
    TITLE "29:cjc024_4393"
    INDEX 01 16:50:54
  TRACK 797 AUDIO
    TITLE "0:"
    INDEX 01 16:52:43
  TRACK 798 AUDIO
    TITLE "30:cjc024_4394"
    INDEX 01 16:53:09
  TRACK 799 AUDIO
    TITLE "0:"
    INDEX 01 16:54:60
  TRACK 800 AUDIO
    TITLE "31:cjc024_4395"
    INDEX 01 16:55:10
  TRACK 801 AUDIO
    TITLE "0:"
    INDEX 01 16:56:63
